<?xml version="1.0" encoding="utf-8" standalone="no"?>
<!DOCTYPE svg PUBLIC "-//W3C//DTD SVG 1.1//EN"
  "http://www.w3.org/Graphics/SVG/1.1/DTD/svg11.dtd">
<!-- Created with matplotlib (https://matplotlib.org/) -->
<svg height="345.6pt" version="1.1" viewBox="0 0 460.8 345.6" width="460.8pt" xmlns="http://www.w3.org/2000/svg" xmlns:xlink="http://www.w3.org/1999/xlink">
 <metadata>
  <rdf:RDF xmlns:cc="http://creativecommons.org/ns#" xmlns:dc="http://purl.org/dc/elements/1.1/" xmlns:rdf="http://www.w3.org/1999/02/22-rdf-syntax-ns#">
   <cc:Work>
    <dc:type rdf:resource="http://purl.org/dc/dcmitype/StillImage"/>
    <dc:date>2023-04-26T15:00:56.099063</dc:date>
    <dc:format>image/svg+xml</dc:format>
    <dc:creator>
     <cc:Agent>
      <dc:title>Matplotlib v3.3.4, https://matplotlib.org/</dc:title>
     </cc:Agent>
    </dc:creator>
   </cc:Work>
  </rdf:RDF>
 </metadata>
 <defs>
  <style type="text/css">*{stroke-linecap:butt;stroke-linejoin:round;}</style>
 </defs>
 <g id="figure_1">
  <g id="patch_1">
   <path d="M 0 345.6 
L 460.8 345.6 
L 460.8 0 
L 0 0 
z
" style="fill:#ffffff;"/>
  </g>
  <g id="axes_1">
   <g id="patch_2">
    <path d="M 57.6 276.48 
L 414.72 276.48 
L 414.72 41.472 
L 57.6 41.472 
z
" style="fill:#ffffff;"/>
   </g>
   <g id="matplotlib.axis_1">
    <g id="xtick_1">
     <g id="line2d_1">
      <defs>
       <path d="M 0 0 
L 0 10 
" id="m076a5c29cd" style="stroke:#000000;stroke-width:2;"/>
      </defs>
      <g>
       <use style="stroke:#000000;stroke-width:2;" x="73.832727" xlink:href="#m076a5c29cd" y="276.48"/>
      </g>
     </g>
     <g id="text_1">
      <!-- −1.00 -->
      <g transform="translate(58.510071 297.578437)scale(0.1 -0.1)">
       <defs>
        <path d="M 10.59375 35.5 
L 73.1875 35.5 
L 73.1875 27.203125 
L 10.59375 27.203125 
z
" id="DejaVuSans-8722"/>
        <path d="M 12.40625 8.296875 
L 28.515625 8.296875 
L 28.515625 63.921875 
L 10.984375 60.40625 
L 10.984375 69.390625 
L 28.421875 72.90625 
L 38.28125 72.90625 
L 38.28125 8.296875 
L 54.390625 8.296875 
L 54.390625 0 
L 12.40625 0 
z
" id="DejaVuSans-49"/>
        <path d="M 10.6875 12.40625 
L 21 12.40625 
L 21 0 
L 10.6875 0 
z
" id="DejaVuSans-46"/>
        <path d="M 31.78125 66.40625 
Q 24.171875 66.40625 20.328125 58.90625 
Q 16.5 51.421875 16.5 36.375 
Q 16.5 21.390625 20.328125 13.890625 
Q 24.171875 6.390625 31.78125 6.390625 
Q 39.453125 6.390625 43.28125 13.890625 
Q 47.125 21.390625 47.125 36.375 
Q 47.125 51.421875 43.28125 58.90625 
Q 39.453125 66.40625 31.78125 66.40625 
z
M 31.78125 74.21875 
Q 44.046875 74.21875 50.515625 64.515625 
Q 56.984375 54.828125 56.984375 36.375 
Q 56.984375 17.96875 50.515625 8.265625 
Q 44.046875 -1.421875 31.78125 -1.421875 
Q 19.53125 -1.421875 13.0625 8.265625 
Q 6.59375 17.96875 6.59375 36.375 
Q 6.59375 54.828125 13.0625 64.515625 
Q 19.53125 74.21875 31.78125 74.21875 
z
" id="DejaVuSans-48"/>
       </defs>
       <use xlink:href="#DejaVuSans-8722"/>
       <use x="83.789062" xlink:href="#DejaVuSans-49"/>
       <use x="147.412109" xlink:href="#DejaVuSans-46"/>
       <use x="179.199219" xlink:href="#DejaVuSans-48"/>
       <use x="242.822266" xlink:href="#DejaVuSans-48"/>
      </g>
     </g>
    </g>
    <g id="xtick_2">
     <g id="line2d_2">
      <g>
       <use style="stroke:#000000;stroke-width:2;" x="114.414545" xlink:href="#m076a5c29cd" y="276.48"/>
      </g>
     </g>
     <g id="text_2">
      <!-- −0.75 -->
      <g transform="translate(99.091889 297.578437)scale(0.1 -0.1)">
       <defs>
        <path d="M 8.203125 72.90625 
L 55.078125 72.90625 
L 55.078125 68.703125 
L 28.609375 0 
L 18.3125 0 
L 43.21875 64.59375 
L 8.203125 64.59375 
z
" id="DejaVuSans-55"/>
        <path d="M 10.796875 72.90625 
L 49.515625 72.90625 
L 49.515625 64.59375 
L 19.828125 64.59375 
L 19.828125 46.734375 
Q 21.96875 47.46875 24.109375 47.828125 
Q 26.265625 48.1875 28.421875 48.1875 
Q 40.625 48.1875 47.75 41.5 
Q 54.890625 34.8125 54.890625 23.390625 
Q 54.890625 11.625 47.5625 5.09375 
Q 40.234375 -1.421875 26.90625 -1.421875 
Q 22.3125 -1.421875 17.546875 -0.640625 
Q 12.796875 0.140625 7.71875 1.703125 
L 7.71875 11.625 
Q 12.109375 9.234375 16.796875 8.0625 
Q 21.484375 6.890625 26.703125 6.890625 
Q 35.15625 6.890625 40.078125 11.328125 
Q 45.015625 15.765625 45.015625 23.390625 
Q 45.015625 31 40.078125 35.4375 
Q 35.15625 39.890625 26.703125 39.890625 
Q 22.75 39.890625 18.8125 39.015625 
Q 14.890625 38.140625 10.796875 36.28125 
z
" id="DejaVuSans-53"/>
       </defs>
       <use xlink:href="#DejaVuSans-8722"/>
       <use x="83.789062" xlink:href="#DejaVuSans-48"/>
       <use x="147.412109" xlink:href="#DejaVuSans-46"/>
       <use x="179.199219" xlink:href="#DejaVuSans-55"/>
       <use x="242.822266" xlink:href="#DejaVuSans-53"/>
      </g>
     </g>
    </g>
    <g id="xtick_3">
     <g id="line2d_3">
      <g>
       <use style="stroke:#000000;stroke-width:2;" x="154.996364" xlink:href="#m076a5c29cd" y="276.48"/>
      </g>
     </g>
     <g id="text_3">
      <!-- −0.50 -->
      <g transform="translate(139.673707 297.578437)scale(0.1 -0.1)">
       <use xlink:href="#DejaVuSans-8722"/>
       <use x="83.789062" xlink:href="#DejaVuSans-48"/>
       <use x="147.412109" xlink:href="#DejaVuSans-46"/>
       <use x="179.199219" xlink:href="#DejaVuSans-53"/>
       <use x="242.822266" xlink:href="#DejaVuSans-48"/>
      </g>
     </g>
    </g>
    <g id="xtick_4">
     <g id="line2d_4">
      <g>
       <use style="stroke:#000000;stroke-width:2;" x="195.578182" xlink:href="#m076a5c29cd" y="276.48"/>
      </g>
     </g>
     <g id="text_4">
      <!-- −0.25 -->
      <g transform="translate(180.255526 297.578437)scale(0.1 -0.1)">
       <defs>
        <path d="M 19.1875 8.296875 
L 53.609375 8.296875 
L 53.609375 0 
L 7.328125 0 
L 7.328125 8.296875 
Q 12.9375 14.109375 22.625 23.890625 
Q 32.328125 33.6875 34.8125 36.53125 
Q 39.546875 41.84375 41.421875 45.53125 
Q 43.3125 49.21875 43.3125 52.78125 
Q 43.3125 58.59375 39.234375 62.25 
Q 35.15625 65.921875 28.609375 65.921875 
Q 23.96875 65.921875 18.8125 64.3125 
Q 13.671875 62.703125 7.8125 59.421875 
L 7.8125 69.390625 
Q 13.765625 71.78125 18.9375 73 
Q 24.125 74.21875 28.421875 74.21875 
Q 39.75 74.21875 46.484375 68.546875 
Q 53.21875 62.890625 53.21875 53.421875 
Q 53.21875 48.921875 51.53125 44.890625 
Q 49.859375 40.875 45.40625 35.40625 
Q 44.1875 33.984375 37.640625 27.21875 
Q 31.109375 20.453125 19.1875 8.296875 
z
" id="DejaVuSans-50"/>
       </defs>
       <use xlink:href="#DejaVuSans-8722"/>
       <use x="83.789062" xlink:href="#DejaVuSans-48"/>
       <use x="147.412109" xlink:href="#DejaVuSans-46"/>
       <use x="179.199219" xlink:href="#DejaVuSans-50"/>
       <use x="242.822266" xlink:href="#DejaVuSans-53"/>
      </g>
     </g>
    </g>
    <g id="xtick_5">
     <g id="line2d_5">
      <g>
       <use style="stroke:#000000;stroke-width:2;" x="236.16" xlink:href="#m076a5c29cd" y="276.48"/>
      </g>
     </g>
     <g id="text_5">
      <!-- 0.00 -->
      <g transform="translate(225.027187 297.578437)scale(0.1 -0.1)">
       <use xlink:href="#DejaVuSans-48"/>
       <use x="63.623047" xlink:href="#DejaVuSans-46"/>
       <use x="95.410156" xlink:href="#DejaVuSans-48"/>
       <use x="159.033203" xlink:href="#DejaVuSans-48"/>
      </g>
     </g>
    </g>
    <g id="xtick_6">
     <g id="line2d_6">
      <g>
       <use style="stroke:#000000;stroke-width:2;" x="276.741818" xlink:href="#m076a5c29cd" y="276.48"/>
      </g>
     </g>
     <g id="text_6">
      <!-- 0.25 -->
      <g transform="translate(265.609006 297.578437)scale(0.1 -0.1)">
       <use xlink:href="#DejaVuSans-48"/>
       <use x="63.623047" xlink:href="#DejaVuSans-46"/>
       <use x="95.410156" xlink:href="#DejaVuSans-50"/>
       <use x="159.033203" xlink:href="#DejaVuSans-53"/>
      </g>
     </g>
    </g>
    <g id="xtick_7">
     <g id="line2d_7">
      <g>
       <use style="stroke:#000000;stroke-width:2;" x="317.323636" xlink:href="#m076a5c29cd" y="276.48"/>
      </g>
     </g>
     <g id="text_7">
      <!-- 0.50 -->
      <g transform="translate(306.190824 297.578437)scale(0.1 -0.1)">
       <use xlink:href="#DejaVuSans-48"/>
       <use x="63.623047" xlink:href="#DejaVuSans-46"/>
       <use x="95.410156" xlink:href="#DejaVuSans-53"/>
       <use x="159.033203" xlink:href="#DejaVuSans-48"/>
      </g>
     </g>
    </g>
    <g id="xtick_8">
     <g id="line2d_8">
      <g>
       <use style="stroke:#000000;stroke-width:2;" x="357.905455" xlink:href="#m076a5c29cd" y="276.48"/>
      </g>
     </g>
     <g id="text_8">
      <!-- 0.75 -->
      <g transform="translate(346.772642 297.578437)scale(0.1 -0.1)">
       <use xlink:href="#DejaVuSans-48"/>
       <use x="63.623047" xlink:href="#DejaVuSans-46"/>
       <use x="95.410156" xlink:href="#DejaVuSans-55"/>
       <use x="159.033203" xlink:href="#DejaVuSans-53"/>
      </g>
     </g>
    </g>
    <g id="xtick_9">
     <g id="line2d_9">
      <g>
       <use style="stroke:#000000;stroke-width:2;" x="398.487273" xlink:href="#m076a5c29cd" y="276.48"/>
      </g>
     </g>
     <g id="text_9">
      <!-- 1.00 -->
      <g transform="translate(387.35446 297.578437)scale(0.1 -0.1)">
       <use xlink:href="#DejaVuSans-49"/>
       <use x="63.623047" xlink:href="#DejaVuSans-46"/>
       <use x="95.410156" xlink:href="#DejaVuSans-48"/>
       <use x="159.033203" xlink:href="#DejaVuSans-48"/>
      </g>
     </g>
    </g>
   </g>
   <g id="matplotlib.axis_2">
    <g id="ytick_1">
     <g id="line2d_10">
      <defs>
       <path d="M 0 0 
L -10 0 
" id="m23fd77535d" style="stroke:#000000;stroke-width:2;"/>
      </defs>
      <g>
       <use style="stroke:#000000;stroke-width:2;" x="57.6" xlink:href="#m23fd77535d" y="265.797818"/>
      </g>
     </g>
     <g id="text_10">
      <!-- −1.00 -->
      <g transform="translate(13.454687 269.597037)scale(0.1 -0.1)">
       <use xlink:href="#DejaVuSans-8722"/>
       <use x="83.789062" xlink:href="#DejaVuSans-49"/>
       <use x="147.412109" xlink:href="#DejaVuSans-46"/>
       <use x="179.199219" xlink:href="#DejaVuSans-48"/>
       <use x="242.822266" xlink:href="#DejaVuSans-48"/>
      </g>
     </g>
    </g>
    <g id="ytick_2">
     <g id="line2d_11">
      <g>
       <use style="stroke:#000000;stroke-width:2;" x="57.6" xlink:href="#m23fd77535d" y="239.092364"/>
      </g>
     </g>
     <g id="text_11">
      <!-- −0.75 -->
      <g transform="translate(13.454687 242.891582)scale(0.1 -0.1)">
       <use xlink:href="#DejaVuSans-8722"/>
       <use x="83.789062" xlink:href="#DejaVuSans-48"/>
       <use x="147.412109" xlink:href="#DejaVuSans-46"/>
       <use x="179.199219" xlink:href="#DejaVuSans-55"/>
       <use x="242.822266" xlink:href="#DejaVuSans-53"/>
      </g>
     </g>
    </g>
    <g id="ytick_3">
     <g id="line2d_12">
      <g>
       <use style="stroke:#000000;stroke-width:2;" x="57.6" xlink:href="#m23fd77535d" y="212.386909"/>
      </g>
     </g>
     <g id="text_12">
      <!-- −0.50 -->
      <g transform="translate(13.454687 216.186128)scale(0.1 -0.1)">
       <use xlink:href="#DejaVuSans-8722"/>
       <use x="83.789062" xlink:href="#DejaVuSans-48"/>
       <use x="147.412109" xlink:href="#DejaVuSans-46"/>
       <use x="179.199219" xlink:href="#DejaVuSans-53"/>
       <use x="242.822266" xlink:href="#DejaVuSans-48"/>
      </g>
     </g>
    </g>
    <g id="ytick_4">
     <g id="line2d_13">
      <g>
       <use style="stroke:#000000;stroke-width:2;" x="57.6" xlink:href="#m23fd77535d" y="185.681455"/>
      </g>
     </g>
     <g id="text_13">
      <!-- −0.25 -->
      <g transform="translate(13.454687 189.480673)scale(0.1 -0.1)">
       <use xlink:href="#DejaVuSans-8722"/>
       <use x="83.789062" xlink:href="#DejaVuSans-48"/>
       <use x="147.412109" xlink:href="#DejaVuSans-46"/>
       <use x="179.199219" xlink:href="#DejaVuSans-50"/>
       <use x="242.822266" xlink:href="#DejaVuSans-53"/>
      </g>
     </g>
    </g>
    <g id="ytick_5">
     <g id="line2d_14">
      <g>
       <use style="stroke:#000000;stroke-width:2;" x="57.6" xlink:href="#m23fd77535d" y="158.976"/>
      </g>
     </g>
     <g id="text_14">
      <!-- 0.00 -->
      <g transform="translate(21.834375 162.775219)scale(0.1 -0.1)">
       <use xlink:href="#DejaVuSans-48"/>
       <use x="63.623047" xlink:href="#DejaVuSans-46"/>
       <use x="95.410156" xlink:href="#DejaVuSans-48"/>
       <use x="159.033203" xlink:href="#DejaVuSans-48"/>
      </g>
     </g>
    </g>
    <g id="ytick_6">
     <g id="line2d_15">
      <g>
       <use style="stroke:#000000;stroke-width:2;" x="57.6" xlink:href="#m23fd77535d" y="132.270545"/>
      </g>
     </g>
     <g id="text_15">
      <!-- 0.25 -->
      <g transform="translate(21.834375 136.069764)scale(0.1 -0.1)">
       <use xlink:href="#DejaVuSans-48"/>
       <use x="63.623047" xlink:href="#DejaVuSans-46"/>
       <use x="95.410156" xlink:href="#DejaVuSans-50"/>
       <use x="159.033203" xlink:href="#DejaVuSans-53"/>
      </g>
     </g>
    </g>
    <g id="ytick_7">
     <g id="line2d_16">
      <g>
       <use style="stroke:#000000;stroke-width:2;" x="57.6" xlink:href="#m23fd77535d" y="105.565091"/>
      </g>
     </g>
     <g id="text_16">
      <!-- 0.50 -->
      <g transform="translate(21.834375 109.36431)scale(0.1 -0.1)">
       <use xlink:href="#DejaVuSans-48"/>
       <use x="63.623047" xlink:href="#DejaVuSans-46"/>
       <use x="95.410156" xlink:href="#DejaVuSans-53"/>
       <use x="159.033203" xlink:href="#DejaVuSans-48"/>
      </g>
     </g>
    </g>
    <g id="ytick_8">
     <g id="line2d_17">
      <g>
       <use style="stroke:#000000;stroke-width:2;" x="57.6" xlink:href="#m23fd77535d" y="78.859636"/>
      </g>
     </g>
     <g id="text_17">
      <!-- 0.75 -->
      <g transform="translate(21.834375 82.658855)scale(0.1 -0.1)">
       <use xlink:href="#DejaVuSans-48"/>
       <use x="63.623047" xlink:href="#DejaVuSans-46"/>
       <use x="95.410156" xlink:href="#DejaVuSans-55"/>
       <use x="159.033203" xlink:href="#DejaVuSans-53"/>
      </g>
     </g>
    </g>
    <g id="ytick_9">
     <g id="line2d_18">
      <g>
       <use style="stroke:#000000;stroke-width:2;" x="57.6" xlink:href="#m23fd77535d" y="52.154182"/>
      </g>
     </g>
     <g id="text_18">
      <!-- 1.00 -->
      <g transform="translate(21.834375 55.953401)scale(0.1 -0.1)">
       <use xlink:href="#DejaVuSans-49"/>
       <use x="63.623047" xlink:href="#DejaVuSans-46"/>
       <use x="95.410156" xlink:href="#DejaVuSans-48"/>
       <use x="159.033203" xlink:href="#DejaVuSans-48"/>
      </g>
     </g>
    </g>
   </g>
   <g id="line2d_19">
    <path clip-path="url(#p8d715000a7)" d="M 73.832727 52.154182 
L 398.487273 52.154182 
L 398.487273 52.154182 
" style="fill:none;stroke:#1f77b4;stroke-linecap:square;stroke-width:2;"/>
   </g>
   <g id="line2d_20">
    <path clip-path="url(#p8d715000a7)" d="M 73.832727 265.797818 
L 398.487273 52.154182 
L 398.487273 52.154182 
" style="fill:none;stroke:#ff7f0e;stroke-linecap:square;stroke-width:2;"/>
   </g>
   <g id="line2d_21">
    <path clip-path="url(#p8d715000a7)" d="M 73.832727 52.154182 
L 80.332318 64.728746 
L 86.506929 76.1987 
L 92.68154 87.204976 
L 98.856151 97.747572 
L 104.705782 107.30758 
L 110.555414 116.451433 
L 116.405045 125.179131 
L 121.929697 133.039838 
L 127.454349 140.529346 
L 132.979001 147.647654 
L 138.503653 154.394761 
L 143.703325 160.405891 
L 148.902998 166.088207 
L 154.10267 171.441708 
L 159.302342 176.466396 
L 164.177035 180.878411 
L 169.051728 185.001429 
L 173.926421 188.835451 
L 178.801114 192.380476 
L 183.675807 195.636505 
L 188.22552 198.414726 
L 192.775233 200.941198 
L 197.324947 203.215923 
L 201.87466 205.238899 
L 206.424373 207.010127 
L 210.974087 208.529607 
L 215.198821 209.715135 
L 219.423554 210.683595 
L 223.648288 211.434986 
L 227.873022 211.969309 
L 232.097756 212.286563 
L 236.32249 212.386749 
L 240.547224 212.269865 
L 244.771957 211.935914 
L 248.996691 211.384894 
L 253.221425 210.616805 
L 257.446159 209.631647 
L 261.670893 208.429422 
L 265.895627 207.010127 
L 270.44534 205.238899 
L 274.995053 203.215923 
L 279.544767 200.941198 
L 284.09448 198.414726 
L 288.644193 195.636505 
L 293.193907 192.606536 
L 298.0686 189.080777 
L 302.943292 185.266022 
L 307.817985 181.16227 
L 312.692678 176.769521 
L 317.567371 172.087776 
L 322.767043 166.775376 
L 327.966716 161.134162 
L 333.166388 155.164135 
L 338.366061 148.865293 
L 343.890713 141.812491 
L 349.415364 134.388489 
L 354.940016 126.593287 
L 360.464668 118.426885 
L 366.3143 109.375511 
L 372.163931 99.907982 
L 378.013563 90.024298 
L 384.188174 79.140043 
L 390.362785 67.79211 
L 396.537396 55.980497 
L 398.487273 52.154182 
L 398.487273 52.154182 
" style="fill:none;stroke:#2ca02c;stroke-linecap:square;stroke-width:2;"/>
   </g>
   <g id="line2d_22">
    <path clip-path="url(#p8d715000a7)" d="M 73.832727 265.797818 
L 77.732482 250.85877 
L 81.632236 236.822295 
L 85.53199 223.666174 
L 89.106765 212.360788 
L 92.68154 201.759364 
L 96.256314 191.844788 
L 99.831089 182.599948 
L 103.405864 174.00773 
L 106.655659 166.748548 
L 109.905455 160.001724 
L 113.15525 153.7544 
L 116.405045 147.993719 
L 119.65484 142.706824 
L 122.579656 138.34308 
L 125.504472 134.343314 
L 128.429287 130.698156 
L 131.354103 127.398231 
L 134.278919 124.434167 
L 137.203735 121.796591 
L 140.12855 119.476131 
L 143.053366 117.463413 
L 145.978182 115.749064 
L 148.578018 114.468104 
L 151.177854 113.408905 
L 153.77769 112.564883 
L 156.377527 111.929455 
L 159.302342 111.455737 
L 162.227158 111.228318 
L 165.151974 111.237824 
L 168.07679 111.474882 
L 171.001605 111.93012 
L 173.926421 112.594164 
L 177.176216 113.565488 
L 180.426011 114.770168 
L 184.000786 116.3495 
L 187.575561 118.178524 
L 191.475315 120.438487 
L 195.37507 122.953022 
L 199.599803 125.93861 
L 204.149517 129.426424 
L 209.02421 133.437884 
L 214.548862 138.273886 
L 221.048452 144.274893 
L 229.17294 152.100392 
L 253.871384 176.111967 
L 260.370975 181.988517 
L 265.895627 186.686381 
L 270.770319 190.55127 
L 275.320033 193.881404 
L 279.544767 196.702523 
L 283.444521 199.049812 
L 287.344275 201.127718 
L 290.91905 202.776845 
L 294.168845 204.049026 
L 297.41864 205.091706 
L 300.668436 205.89203 
L 303.593251 206.394479 
L 306.518067 206.680831 
L 309.442883 206.741714 
L 312.367699 206.567755 
L 315.292514 206.149581 
L 317.892351 205.565273 
L 320.492187 204.774017 
L 323.092023 203.769228 
L 325.691859 202.544326 
L 328.291695 201.092726 
L 330.891532 199.407846 
L 333.491368 197.483103 
L 336.416183 195.02286 
L 339.340999 192.241335 
L 342.265815 189.129157 
L 345.190631 185.676952 
L 348.115446 181.875348 
L 351.040262 177.714971 
L 353.965078 173.186449 
L 356.889894 168.280409 
L 360.139689 162.375085 
L 363.389484 155.979261 
L 366.639279 149.08008 
L 369.889075 141.664684 
L 373.13887 133.720216 
L 376.713645 124.354878 
L 380.288419 114.316694 
L 383.863194 103.588549 
L 387.437969 92.153333 
L 391.012744 79.99393 
L 394.587518 67.09323 
L 398.487273 52.154182 
L 398.487273 52.154182 
" style="fill:none;stroke:#d62728;stroke-linecap:square;stroke-width:2;"/>
   </g>
   <g id="line2d_23">
    <path clip-path="url(#p8d715000a7)" d="M 73.832727 52.154182 
L 76.757543 70.631951 
L 79.682359 87.614059 
L 82.282195 101.505283 
L 84.882031 114.309255 
L 87.481867 126.069288 
L 90.081704 136.827957 
L 92.68154 146.627098 
L 95.281376 155.507809 
L 97.556233 162.556779 
L 99.831089 168.960063 
L 102.105946 174.743804 
L 104.380803 179.93371 
L 106.655659 184.555059 
L 108.930516 188.632695 
L 110.880393 191.713577 
L 112.83027 194.428059 
L 114.780147 196.791027 
L 116.730025 198.817134 
L 118.679902 200.520799 
L 120.629779 201.91621 
L 122.579656 203.017317 
L 124.529533 203.83784 
L 126.47941 204.391265 
L 128.429287 204.690843 
L 130.379165 204.749592 
L 132.329042 204.580298 
L 134.278919 204.195512 
L 136.228796 203.607552 
L 138.503653 202.680917 
L 140.778509 201.512966 
L 143.378346 199.906202 
L 145.978182 198.034915 
L 148.902998 195.645837 
L 152.152793 192.680753 
L 155.727568 189.096328 
L 159.627322 184.869386 
L 164.502015 179.232192 
L 171.001605 171.328205 
L 186.600622 152.19612 
L 191.800295 146.226267 
L 196.350008 141.320306 
L 200.574742 137.089279 
L 204.474496 133.502007 
L 208.049271 130.510544 
L 211.299066 128.056697 
L 214.548862 125.871084 
L 217.798657 123.966588 
L 220.723473 122.502092 
L 223.648288 121.281131 
L 226.573104 120.309351 
L 229.49792 119.591219 
L 232.097756 119.1685 
L 234.697592 118.950327 
L 237.297428 118.937485 
L 239.897265 119.130019 
L 242.497101 119.527238 
L 245.096937 120.127712 
L 248.021753 121.043469 
L 250.946568 122.209504 
L 253.871384 123.62043 
L 256.7962 125.269679 
L 260.045995 127.372228 
L 263.29579 129.747065 
L 266.870565 132.656943 
L 270.44534 135.857794 
L 274.345094 139.653234 
L 278.569828 144.083111 
L 283.444521 149.542719 
L 288.969173 156.079109 
L 297.093661 166.08347 
L 307.493006 178.845517 
L 312.692678 184.869386 
L 316.917412 189.434625 
L 320.492187 192.990678 
L 323.741982 195.925075 
L 326.666798 198.282397 
L 329.266634 200.122054 
L 331.86647 201.693891 
L 334.141327 202.828502 
L 336.416183 203.719139 
L 338.69104 204.346953 
L 340.640917 204.661288 
L 342.590794 204.755974 
L 344.540672 204.61838 
L 346.490549 204.235645 
L 348.440426 203.594671 
L 350.390303 202.68213 
L 352.34018 201.484457 
L 354.290057 199.987857 
L 356.239934 198.178299 
L 358.189812 196.041519 
L 360.139689 193.563019 
L 362.089566 190.72807 
L 364.039443 187.521706 
L 365.98932 183.92873 
L 368.264177 179.227689 
L 370.539034 173.954507 
L 372.81389 168.083845 
L 375.088747 161.58993 
L 377.363604 154.44656 
L 379.63846 146.627098 
L 382.238296 136.827957 
L 384.838133 126.069288 
L 387.437969 114.309255 
L 390.037805 101.505283 
L 392.637641 87.614059 
L 395.237477 72.591534 
L 398.162293 54.283139 
L 398.487273 52.154182 
L 398.487273 52.154182 
" style="fill:none;stroke:#9467bd;stroke-linecap:square;stroke-width:2;"/>
   </g>
   <g id="line2d_24">
    <path clip-path="url(#p8d715000a7)" d="M 73.832727 265.797818 
L 76.107584 244.423761 
L 78.382441 225.131278 
L 80.657297 207.802661 
L 82.932154 192.323986 
L 84.882031 180.445325 
L 86.831908 169.777545 
L 88.781785 160.255363 
L 90.731663 151.815429 
L 92.68154 144.396301 
L 94.631417 137.93842 
L 96.256314 133.249455 
L 97.881212 129.155501 
L 99.50611 125.625013 
L 101.131007 122.627309 
L 102.755905 120.13256 
L 104.380803 118.11178 
L 105.680721 116.817468 
L 106.980639 115.794428 
L 108.280557 115.028959 
L 109.580475 114.507691 
L 110.880393 114.21758 
L 112.180311 114.145907 
L 113.480229 114.280272 
L 114.780147 114.608592 
L 116.405045 115.273843 
L 118.029943 116.20148 
L 119.65484 117.369946 
L 121.604717 119.060737 
L 123.554595 121.033786 
L 125.829451 123.648325 
L 128.429287 126.987572 
L 131.354103 131.108042 
L 134.928878 136.53609 
L 140.12855 144.899356 
L 151.177854 162.800212 
L 155.402588 169.166268 
L 158.977363 174.179024 
L 162.227158 178.37737 
L 165.151974 181.826885 
L 168.07679 184.937552 
L 170.676626 187.400712 
L 173.276462 189.567089 
L 175.876298 191.427292 
L 178.151155 192.79839 
L 180.426011 193.926801 
L 182.700868 194.810903 
L 184.975725 195.450409 
L 187.250581 195.846315 
L 189.525438 196.000847 
L 191.800295 195.917399 
L 194.075152 195.600487 
L 196.350008 195.055692 
L 198.624865 194.289602 
L 200.899722 193.30976 
L 203.499558 191.939076 
L 206.099394 190.314214 
L 209.02421 188.201505 
L 211.949025 185.810103 
L 215.198821 182.85707 
L 218.773595 179.291959 
L 222.67335 175.084066 
L 227.223063 169.847476 
L 233.397674 162.379749 
L 246.071876 146.958105 
L 250.946568 141.43248 
L 254.846323 137.328305 
L 258.421097 133.878521 
L 261.670893 131.046231 
L 264.595708 128.775659 
L 267.520524 126.794508 
L 270.12036 125.294905 
L 272.720197 124.056629 
L 274.995053 123.197953 
L 277.26991 122.557454 
L 279.544767 122.142135 
L 281.819623 121.958015 
L 284.09448 122.010073 
L 286.369337 122.302191 
L 288.644193 122.837102 
L 290.91905 123.616336 
L 293.193907 124.640163 
L 295.468763 125.907539 
L 297.74362 127.416052 
L 300.343456 129.430353 
L 302.943292 131.746461 
L 305.543129 134.353658 
L 308.467944 137.617839 
L 311.39276 141.209871 
L 314.642555 145.551075 
L 318.21733 150.698614 
L 322.442064 157.188115 
L 328.291695 166.644147 
L 337.716102 181.923361 
L 341.615856 187.788315 
L 344.540672 191.830715 
L 347.140508 195.082326 
L 349.415364 197.605185 
L 351.365242 199.487899 
L 353.315119 201.076991 
L 354.940016 202.151665 
L 356.564914 202.976976 
L 358.189812 203.53107 
L 359.48973 203.763903 
L 360.789648 203.796779 
L 362.089566 203.617456 
L 363.389484 203.213377 
L 364.689402 202.57166 
L 365.98932 201.679097 
L 367.289238 200.522154 
L 368.589156 199.086964 
L 369.889075 197.359323 
L 371.513972 194.766329 
L 373.13887 191.664481 
L 374.763767 188.023782 
L 376.388665 183.813378 
L 378.013563 179.001548 
L 379.63846 173.555699 
L 381.588337 166.136571 
L 383.538215 157.696637 
L 385.488092 148.174455 
L 387.437969 137.506675 
L 389.387846 125.628014 
L 391.337723 112.47123 
L 393.2876 97.967097 
L 395.562457 79.247563 
L 397.837314 58.480475 
L 398.487273 52.154182 
L 398.487273 52.154182 
" style="fill:none;stroke:#8c564b;stroke-linecap:square;stroke-width:2;"/>
   </g>
   <g id="patch_3">
    <path d="M 57.6 276.48 
L 57.6 41.472 
" style="fill:none;stroke:#000000;stroke-linecap:square;stroke-linejoin:miter;stroke-width:2;"/>
   </g>
   <g id="patch_4">
    <path d="M 414.72 276.48 
L 414.72 41.472 
" style="fill:none;stroke:#000000;stroke-linecap:square;stroke-linejoin:miter;stroke-width:2;"/>
   </g>
   <g id="patch_5">
    <path d="M 57.6 276.48 
L 414.72 276.48 
" style="fill:none;stroke:#000000;stroke-linecap:square;stroke-linejoin:miter;stroke-width:2;"/>
   </g>
   <g id="patch_6">
    <path d="M 57.6 41.472 
L 414.72 41.472 
" style="fill:none;stroke:#000000;stroke-linecap:square;stroke-linejoin:miter;stroke-width:2;"/>
   </g>
   <g id="legend_1">
    <g id="patch_7">
     <path d="M 155.96 271.48 
L 316.36 271.48 
Q 318.36 271.48 318.36 269.48 
L 318.36 241.12375 
Q 318.36 239.12375 316.36 239.12375 
L 155.96 239.12375 
Q 153.96 239.12375 153.96 241.12375 
L 153.96 269.48 
Q 153.96 271.48 155.96 271.48 
z
" style="fill:#ffffff;opacity:0.8;stroke:#cccccc;stroke-linejoin:miter;"/>
    </g>
    <g id="line2d_25">
     <path d="M 157.96 247.222187 
L 177.96 247.222187 
" style="fill:none;stroke:#1f77b4;stroke-linecap:square;stroke-width:2;"/>
    </g>
    <g id="line2d_26"/>
    <g id="text_19">
     <!-- $P_0$ -->
     <g transform="translate(185.96 250.722187)scale(0.1 -0.1)">
      <defs>
       <path d="M 16.890625 72.90625 
L 39.703125 72.90625 
Q 49.65625 72.90625 54.875 68.265625 
Q 60.109375 63.625 60.109375 54.6875 
Q 60.109375 42.671875 52.390625 35.984375 
Q 44.671875 29.296875 30.71875 29.296875 
L 18.3125 29.296875 
L 12.59375 0 
L 2.6875 0 
z
M 25.203125 64.796875 
L 19.921875 37.40625 
L 32.328125 37.40625 
Q 40.71875 37.40625 45.203125 41.703125 
Q 49.703125 46 49.703125 54 
Q 49.703125 59.125 46.65625 61.953125 
Q 43.609375 64.796875 38.09375 64.796875 
z
" id="DejaVuSans-Oblique-80"/>
      </defs>
      <use transform="translate(0 0.09375)" xlink:href="#DejaVuSans-Oblique-80"/>
      <use transform="translate(60.302734 -16.3125)scale(0.7)" xlink:href="#DejaVuSans-48"/>
     </g>
    </g>
    <g id="line2d_27">
     <path d="M 157.96 261.900312 
L 177.96 261.900312 
" style="fill:none;stroke:#ff7f0e;stroke-linecap:square;stroke-width:2;"/>
    </g>
    <g id="line2d_28"/>
    <g id="text_20">
     <!-- $P_1$ -->
     <g transform="translate(185.96 265.400312)scale(0.1 -0.1)">
      <use transform="translate(0 0.09375)" xlink:href="#DejaVuSans-Oblique-80"/>
      <use transform="translate(60.302734 -16.3125)scale(0.7)" xlink:href="#DejaVuSans-49"/>
     </g>
    </g>
    <g id="line2d_29">
     <path d="M 216.76 247.222187 
L 236.76 247.222187 
" style="fill:none;stroke:#2ca02c;stroke-linecap:square;stroke-width:2;"/>
    </g>
    <g id="line2d_30"/>
    <g id="text_21">
     <!-- $P_2$ -->
     <g transform="translate(244.76 250.722187)scale(0.1 -0.1)">
      <use transform="translate(0 0.09375)" xlink:href="#DejaVuSans-Oblique-80"/>
      <use transform="translate(60.302734 -16.3125)scale(0.7)" xlink:href="#DejaVuSans-50"/>
     </g>
    </g>
    <g id="line2d_31">
     <path d="M 216.76 261.900312 
L 236.76 261.900312 
" style="fill:none;stroke:#d62728;stroke-linecap:square;stroke-width:2;"/>
    </g>
    <g id="line2d_32"/>
    <g id="text_22">
     <!-- $P_3$ -->
     <g transform="translate(244.76 265.400312)scale(0.1 -0.1)">
      <defs>
       <path d="M 40.578125 39.3125 
Q 47.65625 37.796875 51.625 33 
Q 55.609375 28.21875 55.609375 21.1875 
Q 55.609375 10.40625 48.1875 4.484375 
Q 40.765625 -1.421875 27.09375 -1.421875 
Q 22.515625 -1.421875 17.65625 -0.515625 
Q 12.796875 0.390625 7.625 2.203125 
L 7.625 11.71875 
Q 11.71875 9.328125 16.59375 8.109375 
Q 21.484375 6.890625 26.8125 6.890625 
Q 36.078125 6.890625 40.9375 10.546875 
Q 45.796875 14.203125 45.796875 21.1875 
Q 45.796875 27.640625 41.28125 31.265625 
Q 36.765625 34.90625 28.71875 34.90625 
L 20.21875 34.90625 
L 20.21875 43.015625 
L 29.109375 43.015625 
Q 36.375 43.015625 40.234375 45.921875 
Q 44.09375 48.828125 44.09375 54.296875 
Q 44.09375 59.90625 40.109375 62.90625 
Q 36.140625 65.921875 28.71875 65.921875 
Q 24.65625 65.921875 20.015625 65.03125 
Q 15.375 64.15625 9.8125 62.3125 
L 9.8125 71.09375 
Q 15.4375 72.65625 20.34375 73.4375 
Q 25.25 74.21875 29.59375 74.21875 
Q 40.828125 74.21875 47.359375 69.109375 
Q 53.90625 64.015625 53.90625 55.328125 
Q 53.90625 49.265625 50.4375 45.09375 
Q 46.96875 40.921875 40.578125 39.3125 
z
" id="DejaVuSans-51"/>
      </defs>
      <use transform="translate(0 0.09375)" xlink:href="#DejaVuSans-Oblique-80"/>
      <use transform="translate(60.302734 -16.3125)scale(0.7)" xlink:href="#DejaVuSans-51"/>
     </g>
    </g>
    <g id="line2d_33">
     <path d="M 275.56 247.222187 
L 295.56 247.222187 
" style="fill:none;stroke:#9467bd;stroke-linecap:square;stroke-width:2;"/>
    </g>
    <g id="line2d_34"/>
    <g id="text_23">
     <!-- $P_4$ -->
     <g transform="translate(303.56 250.722187)scale(0.1 -0.1)">
      <defs>
       <path d="M 37.796875 64.3125 
L 12.890625 25.390625 
L 37.796875 25.390625 
z
M 35.203125 72.90625 
L 47.609375 72.90625 
L 47.609375 25.390625 
L 58.015625 25.390625 
L 58.015625 17.1875 
L 47.609375 17.1875 
L 47.609375 0 
L 37.796875 0 
L 37.796875 17.1875 
L 4.890625 17.1875 
L 4.890625 26.703125 
z
" id="DejaVuSans-52"/>
      </defs>
      <use transform="translate(0 0.09375)" xlink:href="#DejaVuSans-Oblique-80"/>
      <use transform="translate(60.302734 -16.3125)scale(0.7)" xlink:href="#DejaVuSans-52"/>
     </g>
    </g>
    <g id="line2d_35">
     <path d="M 275.56 261.900312 
L 295.56 261.900312 
" style="fill:none;stroke:#8c564b;stroke-linecap:square;stroke-width:2;"/>
    </g>
    <g id="line2d_36"/>
    <g id="text_24">
     <!-- $P_5$ -->
     <g transform="translate(303.56 265.400312)scale(0.1 -0.1)">
      <use transform="translate(0 0.09375)" xlink:href="#DejaVuSans-Oblique-80"/>
      <use transform="translate(60.302734 -16.3125)scale(0.7)" xlink:href="#DejaVuSans-53"/>
     </g>
    </g>
   </g>
  </g>
 </g>
 <defs>
  <clipPath id="p8d715000a7">
   <rect height="235.008" width="357.12" x="57.6" y="41.472"/>
  </clipPath>
 </defs>
</svg>
